<?xml version="1.0" standalone="no"?>
<!DOCTYPE svg PUBLIC "-//W3C//DTD SVG 20010904//EN"
 "http://www.w3.org/TR/2001/REC-SVG-20010904/DTD/svg10.dtd">
<svg version="1.0" xmlns="http://www.w3.org/2000/svg"
 width="1280.000000pt" height="992.000000pt" viewBox="0 0 1280.000000 992.000000"
 preserveAspectRatio="xMidYMid meet">
<metadata>
Created by potrace 1.15, written by Peter Selinger 2001-2017
</metadata>
<g transform="translate(0.000000,992.000000) scale(0.100000,-0.100000)"
fill="#f44336" stroke="none">
<path d="M6170 9895 c-242 -51 -424 -140 -547 -267 -94 -97 -96 -200 -3 -214
29 -4 47 2 104 37 81 49 134 58 347 59 149 0 213 -13 283 -58 31 -20 51 -26
81 -24 60 5 170 -24 260 -68 71 -34 84 -46 118 -97 75 -116 110 -143 184 -143
92 0 130 -26 221 -152 46 -62 43 -74 -20 -84 -27 -5 -51 3 -123 41 -95 51
-146 59 -186 31 -18 -12 -26 -13 -61 0 -85 30 -168 13 -222 -45 -38 -40 -75
-46 -159 -26 -78 18 -98 14 -146 -27 -18 -16 -38 -27 -45 -25 -6 2 -37 10 -68
17 -55 13 -57 12 -88 -14 -39 -32 -51 -32 -118 -1 -68 32 -85 31 -122 -2 -39
-35 -50 -95 -26 -140 18 -37 124 -110 220 -153 37 -16 126 -48 197 -70 71 -22
188 -58 259 -80 85 -27 178 -65 268 -112 1046 -541 1162 -604 1427 -772 296
-187 533 -312 695 -368 l105 -35 -1 -59 c-1 -33 -3 -115 -4 -184 -3 -109 -1
-133 19 -185 12 -33 26 -74 30 -92 5 -17 18 -47 29 -65 10 -18 22 -53 26 -78
4 -24 29 -85 56 -135 27 -50 52 -110 56 -134 l7 -42 -38 15 c-20 9 -119 63
-219 120 -256 146 -342 178 -486 178 -72 0 -102 6 -197 39 -147 50 -364 104
-494 123 -58 8 -198 16 -316 18 l-211 3 -6 27 c-12 59 -111 81 -181 39 -24
-14 -45 -19 -59 -15 -11 3 -53 37 -92 75 -39 37 -81 70 -95 73 -262 55 -342
67 -394 60 -27 -4 -120 -9 -205 -10 -219 -2 -326 -36 -436 -137 l-56 -51 -69
12 c-98 17 -107 16 -142 -20 -59 -59 -143 -79 -372 -88 -301 -13 -543 -64
-725 -155 -31 -15 -71 -24 -131 -28 -153 -10 -318 -63 -498 -158 -90 -48 -256
-154 -294 -187 -17 -16 -20 -15 -32 1 -12 16 -31 154 -23 163 2 2 67 26 144
52 270 96 364 143 512 261 53 42 180 140 282 216 102 76 231 177 288 222 56
46 115 89 130 95 15 7 84 48 155 91 72 45 168 94 220 114 174 65 247 76 647
103 253 18 258 27 65 147 -21 14 -66 26 -116 33 -91 13 -119 21 -160 51 -26
18 -33 19 -64 8 -27 -10 -50 -10 -111 -1 -42 7 -80 10 -84 7 -5 -3 -16 5 -25
19 -23 35 -47 37 -105 10 -58 -27 -87 -30 -125 -12 -21 10 -34 8 -80 -11 -56
-23 -85 -25 -92 -5 -2 7 33 51 78 99 96 100 226 191 338 234 42 16 106 43 142
60 173 79 356 89 518 30 87 -32 127 -35 140 -10 9 16 8 27 -3 49 -41 79 -150
143 -321 189 -92 24 -116 26 -300 27 -223 1 -299 -9 -518 -70 -130 -36 -323
-107 -411 -151 -27 -14 -73 -48 -103 -76 l-53 -50 -78 16 c-117 25 -132 23
-252 -38 -344 -176 -728 -488 -1035 -840 -38 -44 -101 -114 -141 -155 -72 -76
-104 -124 -104 -157 0 -20 -60 -83 -97 -102 -11 -6 -59 -24 -106 -41 -140 -51
-175 -92 -248 -300 -53 -149 -71 -249 -77 -440 -7 -239 -4 -309 19 -398 57
-224 209 -418 392 -497 l65 -28 5 -52 c6 -64 35 -123 88 -180 38 -41 39 -44
39 -116 0 -41 -4 -80 -9 -87 -6 -11 -30 -2 -106 37 -53 27 -122 56 -152 62
-53 12 -58 12 -109 -15 -29 -15 -60 -26 -70 -24 -12 2 -37 54 -83 168 -37 91
-83 194 -102 230 -29 53 -38 81 -44 145 -14 157 -32 238 -131 572 -29 100 -62
229 -73 287 -22 111 -43 161 -110 261 -30 43 -41 70 -41 97 0 50 33 134 75
194 21 29 49 92 69 154 64 197 70 231 71 417 l1 173 44 45 c24 24 41 48 37 51
-10 10 -92 -24 -148 -62 -101 -68 -157 -125 -215 -217 -170 -274 -253 -487
-274 -703 -10 -106 -8 -104 -86 -158 l-27 -19 6 -156 c8 -239 55 -457 147
-676 46 -108 45 -105 35 -216 -15 -151 32 -277 180 -484 173 -244 278 -362
411 -462 49 -36 83 -72 108 -113 43 -70 76 -91 176 -115 126 -29 236 -72 436
-170 105 -51 283 -128 395 -170 310 -118 293 -108 442 -252 72 -70 139 -139
148 -153 9 -14 26 -34 39 -45 32 -28 80 -95 80 -113 0 -21 -24 -13 -248 82
-282 121 -548 244 -942 438 -253 124 -352 168 -370 164 -14 -2 -44 -10 -66
-17 l-41 -12 -199 130 c-219 144 -339 207 -460 243 l-81 23 -255 251 c-171
168 -279 283 -326 346 -38 52 -95 120 -126 150 l-57 55 -70 1 c-84 0 -99 12
-124 99 -26 90 -57 146 -183 319 -136 187 -218 278 -297 326 -97 60 -103 67
-126 140 -42 140 -66 100 -56 -94 3 -61 15 -147 27 -191 24 -95 113 -290 219
-485 100 -184 160 -266 199 -274 42 -10 72 -41 72 -77 0 -41 57 -149 127 -241
32 -42 87 -114 122 -160 157 -206 348 -399 479 -484 35 -22 70 -55 86 -81 46
-72 164 -174 262 -225 111 -58 216 -94 463 -161 l194 -53 11 -34 c8 -26 25
-43 70 -70 84 -51 84 -62 -2 -54 -167 16 -437 -36 -657 -127 -151 -62 -226
-105 -243 -141 -9 -20 -42 -41 -125 -81 -131 -64 -295 -171 -451 -296 -145
-116 -144 -115 -148 -186 -3 -65 0 -61 -99 -105 -50 -22 -145 -129 -264 -296
-128 -179 -261 -440 -301 -594 -26 -98 -24 -272 6 -378 12 -45 26 -82 30 -82
5 0 11 30 14 68 13 139 14 142 79 175 41 21 79 53 130 110 40 45 110 122 158
172 185 196 215 233 259 322 36 71 62 105 133 176 83 83 91 89 120 83 18 -4
62 -9 98 -13 l67 -5 163 79 c166 80 249 126 549 303 236 140 355 203 524 281
175 81 219 88 240 39 13 -32 195 -176 279 -220 26 -14 47 -29 47 -35 0 -5 -9
-29 -19 -51 l-19 -41 -148 0 c-277 -1 -516 -75 -754 -234 -116 -77 -264 -218
-288 -273 -18 -40 -70 -107 -197 -254 -71 -82 -196 -254 -233 -320 -21 -37
-27 -63 -30 -133 -4 -84 -6 -89 -44 -135 -71 -86 -91 -145 -118 -350 -33 -248
-25 -331 37 -404 21 -24 43 -66 54 -104 21 -70 56 -123 71 -108 6 6 5 32 -3
71 l-12 62 59 59 c88 88 126 160 189 353 30 95 67 200 81 233 l25 61 67 5
c136 10 154 27 647 598 353 409 371 428 416 440 55 15 83 0 74 -41 -5 -22 -2
-36 10 -49 19 -21 109 -53 200 -70 33 -7 179 -38 325 -70 434 -96 573 -120
855 -145 191 -18 231 -15 430 26 77 16 171 33 209 38 52 8 96 24 178 65 120
61 165 69 231 41 51 -21 156 -19 224 5 31 11 88 38 126 61 67 40 71 41 96 26
51 -29 137 -47 256 -53 l120 -6 115 -56 115 -57 100 0 c110 0 200 22 305 75
44 22 75 29 155 35 135 9 223 30 280 66 l47 30 57 -36 c134 -81 214 -94 339
-55 35 11 74 20 85 20 12 0 74 -22 137 -49 165 -69 327 -120 444 -137 55 -8
121 -20 146 -26 83 -20 100 -21 118 -5 13 11 58 16 202 20 271 8 437 39 934
176 245 68 355 106 363 128 3 8 6 31 7 51 1 28 7 39 26 49 74 37 132 -1 260
-168 91 -119 157 -185 209 -211 16 -7 47 -35 68 -60 102 -124 145 -176 175
-215 214 -276 256 -321 330 -359 35 -18 64 -24 110 -24 41 0 71 -5 85 -15 30
-21 56 -83 104 -245 58 -194 106 -287 185 -365 l65 -63 -7 -61 c-6 -59 3 -91
28 -91 5 0 32 46 59 102 28 57 60 121 72 143 20 37 22 54 22 210 0 147 -3 181
-23 248 -27 93 -54 150 -95 197 -46 52 -80 135 -83 203 -3 65 -17 93 -109 222
-71 99 -145 190 -255 314 -47 53 -99 116 -115 140 -123 182 -336 323 -645 425
-244 81 -311 96 -420 96 -102 0 -180 19 -180 44 0 16 43 47 148 108 48 27 102
61 120 74 38 30 72 91 72 132 l0 29 53 -9 c78 -14 173 -57 356 -163 91 -52
197 -106 235 -120 39 -15 88 -43 113 -65 64 -56 200 -147 333 -223 63 -36 153
-88 199 -116 130 -79 179 -94 284 -88 82 4 90 3 116 -19 38 -32 167 -192 229
-285 27 -41 78 -111 112 -154 117 -146 350 -365 389 -365 11 0 29 -8 41 -18
18 -14 23 -32 29 -100 14 -167 57 -110 70 93 5 67 11 127 15 133 9 15 -68 211
-139 352 -102 203 -219 380 -364 548 -50 58 -68 72 -90 72 -39 0 -48 14 -66
101 -15 73 -16 75 -98 155 -132 128 -367 294 -547 384 -25 13 -63 37 -85 55
-95 76 -219 136 -372 180 -121 35 -240 54 -428 66 -87 5 -161 12 -164 15 -2 2
23 31 57 63 34 33 62 64 62 70 0 6 53 27 118 47 345 106 405 127 492 169 117
58 203 118 267 188 26 30 95 95 153 144 111 96 279 264 396 399 119 135 302
369 314 398 5 15 10 55 10 88 l0 61 59 54 c159 143 282 356 395 681 50 144 55
180 30 217 -14 21 -14 34 -4 95 12 73 7 134 -12 146 -14 9 -24 -9 -49 -91 -17
-56 -29 -77 -61 -105 -93 -80 -141 -135 -285 -324 -144 -189 -232 -333 -263
-429 -14 -45 -27 -53 -105 -62 -68 -9 -45 13 -266 -245 -73 -85 -232 -254
-353 -375 -216 -215 -223 -221 -291 -244 -139 -49 -447 -214 -637 -342 -55
-38 -57 -38 -92 -24 -19 8 -48 15 -63 15 -16 0 -134 -53 -273 -123 -135 -67
-348 -167 -475 -221 -319 -138 -583 -258 -692 -317 -90 -48 -133 -60 -133 -38
0 27 82 119 238 266 186 176 231 205 445 287 63 25 209 92 323 149 304 152
401 192 529 217 162 31 221 66 240 142 4 15 33 47 69 76 89 72 236 224 307
317 170 222 262 443 293 705 8 63 22 135 31 160 73 199 138 496 150 680 7 97
6 108 -15 143 -27 45 -29 118 -5 227 14 65 15 97 5 240 -26 381 -38 456 -90
560 -56 111 -219 290 -264 290 -3 0 10 -30 29 -66 40 -76 42 -95 15 -139 -28
-46 -56 -164 -64 -270 -4 -54 -1 -174 8 -299 25 -330 29 -304 -55 -392 -85
-89 -123 -166 -139 -279 -16 -115 -32 -174 -115 -420 -91 -272 -107 -346 -109
-501 l-1 -121 -37 -56 c-20 -30 -53 -102 -73 -159 -42 -120 -74 -178 -111
-203 -26 -17 -28 -16 -69 4 -65 32 -96 27 -236 -39 -140 -67 -165 -73 -155
-37 47 159 47 380 1 564 l-28 112 33 58 c28 49 33 69 34 128 2 86 21 129 85
187 242 222 376 429 430 663 45 199 64 353 64 530 0 179 -11 255 -54 371 -17
47 -35 71 -87 119 -121 110 -180 172 -197 205 -10 19 -21 74 -26 129 -28 321
-131 521 -452 884 -267 302 -466 473 -967 827 -96 68 -232 165 -301 217 -70
51 -146 102 -170 113 -61 27 -118 26 -163 -5 -26 -18 -50 -25 -84 -25 -26 0
-64 -5 -85 -11 -32 -8 -42 -7 -65 9 -50 36 -188 101 -278 131 -215 72 -714
141 -1069 147 -192 3 -220 2 -325 -21z m2580 -7307 c0 -7 -26 -27 -58 -44
-251 -135 -296 -156 -367 -174 -96 -25 -145 -26 -145 -5 0 23 138 159 185 183
61 31 162 47 313 50 52 2 72 -1 72 -10z m-4569 -8 c30 -5 106 -16 170 -25
l117 -15 71 -70 c56 -56 71 -77 71 -101 0 -22 -6 -32 -26 -39 -72 -28 -156 2
-304 107 -63 44 -139 92 -167 107 -29 14 -53 31 -53 36 0 13 51 13 121 0z"/>
</g>
</svg>
